<?xml version="1.0" encoding="UTF-8"?>
<svg xmlns="http://www.w3.org/2000/svg" xmlns:xlink="http://www.w3.org/1999/xlink" width="512px" height="512px" viewBox="0 0 512 512" version="1.1">
<g id="surface1">
<path style=" stroke:none;fill-rule:nonzero;fill:rgb(0%,0%,0%);fill-opacity:1;" d="M 437.019531 74.980469 C 388.667969 26.628906 324.378906 0 256 0 C 187.621094 0 123.332031 26.628906 74.980469 74.980469 C 26.628906 123.332031 0 187.621094 0 256 C 0 324.378906 26.628906 388.667969 74.980469 437.019531 C 123.332031 485.371094 187.621094 512 256 512 C 324.378906 512 388.667969 485.371094 437.019531 437.019531 C 485.371094 388.667969 512 324.378906 512 256 C 512 187.621094 485.371094 123.332031 437.019531 74.980469 Z M 256 495.484375 C 123.949219 495.484375 16.515625 388.050781 16.515625 256 C 16.515625 123.949219 123.949219 16.515625 256 16.515625 C 388.050781 16.515625 495.484375 123.949219 495.484375 256 C 495.484375 388.050781 388.050781 495.484375 256 495.484375 Z M 256 495.484375 "/>
<path style=" stroke:none;fill-rule:nonzero;fill:rgb(0%,0%,0%);fill-opacity:1;" d="M 454.125 330.609375 L 316.394531 330.609375 C 316.265625 330.605469 316.140625 330.605469 316.011719 330.609375 L 281.601562 330.609375 C 281.574219 330.609375 281.550781 330.609375 281.527344 330.609375 L 236.527344 330.609375 L 231.160156 314.089844 L 292.179688 314.089844 C 292.1875 314.089844 292.199219 314.09375 292.207031 314.09375 C 292.214844 314.09375 292.222656 314.089844 292.234375 314.089844 L 326.910156 314.089844 C 326.921875 314.089844 326.929688 314.09375 326.9375 314.09375 C 326.949219 314.09375 326.957031 314.089844 326.964844 314.089844 L 409.371094 314.089844 C 412.949219 314.089844 416.117188 311.789062 417.222656 308.382812 C 418.328125 304.984375 417.117188 301.253906 414.222656 299.152344 L 347.484375 250.664062 C 347.46875 250.652344 347.449219 250.640625 347.433594 250.625 L 319.382812 230.25 C 319.367188 230.234375 319.351562 230.222656 319.332031 230.210938 L 260.960938 187.800781 C 260.9375 187.785156 260.914062 187.765625 260.890625 187.75 L 232.859375 167.386719 C 232.839844 167.367188 232.816406 167.351562 232.792969 167.335938 L 166.066406 118.855469 C 163.171875 116.753906 159.25 116.753906 156.359375 118.855469 C 153.464844 120.957031 152.253906 124.6875 153.359375 128.089844 L 176.976562 200.78125 L 162.925781 210.988281 L 123.835938 90.679688 C 122.984375 88.046875 120.871094 86.023438 118.210938 85.277344 C 115.546875 84.53125 112.691406 85.167969 110.59375 86.972656 C 61.300781 129.410156 33.03125 191.019531 33.03125 256 C 33.03125 273.300781 35.03125 290.5625 38.976562 307.304688 C 39.609375 309.996094 41.546875 312.191406 44.136719 313.152344 C 45.070312 313.5 46.042969 313.667969 47.011719 313.667969 C 48.730469 313.667969 50.433594 313.132812 51.867188 312.09375 L 163.28125 231.144531 C 163.390625 231.070312 163.496094 230.992188 163.601562 230.910156 L 191.371094 210.734375 C 191.449219 210.683594 191.523438 210.625 191.597656 210.570312 L 227.898438 184.195312 L 241.949219 194.40625 L 192.667969 230.210938 C 192.648438 230.226562 192.628906 230.238281 192.609375 230.253906 L 164.566406 250.628906 C 164.546875 250.640625 164.527344 250.652344 164.511719 250.667969 L 97.773438 299.15625 C 94.878906 301.257812 93.667969 304.984375 94.773438 308.386719 C 95.878906 311.789062 99.050781 314.09375 102.628906 314.09375 L 179.0625 314.09375 L 226.589844 460.367188 C 158.945312 450.765625 100.851562 408.566406 70.6875 347.125 L 162.761719 347.125 C 167.320312 347.125 171.019531 343.429688 171.019531 338.867188 C 171.019531 334.304688 167.320312 330.609375 162.761719 330.609375 L 57.875 330.609375 C 55.109375 330.609375 52.527344 331.992188 51 334.292969 C 49.46875 336.59375 49.1875 339.507812 50.257812 342.058594 C 65.855469 379.304688 91.355469 411.691406 124.003906 435.707031 C 157.273438 460.183594 196.597656 474.882812 237.730469 478.222656 C 237.957031 478.238281 238.179688 478.246094 238.402344 478.246094 C 240.914062 478.246094 243.304688 477.101562 244.878906 475.109375 C 246.589844 472.941406 247.105469 470.0625 246.253906 467.4375 L 192.957031 303.402344 C 192.949219 303.382812 192.941406 303.359375 192.933594 303.339844 L 179.027344 260.535156 L 193.078125 250.328125 L 211.898438 308.253906 C 211.90625 308.285156 211.917969 308.316406 211.929688 308.347656 L 222.636719 341.300781 C 222.640625 341.320312 222.648438 341.335938 222.652344 341.355469 L 248.144531 419.816406 C 249.25 423.21875 252.421875 425.523438 256 425.523438 C 259.578125 425.523438 262.75 423.21875 263.855469 419.816406 L 287.472656 347.125 L 304.839844 347.125 L 265.746094 467.4375 C 264.894531 470.0625 265.410156 472.941406 267.121094 475.109375 C 268.695312 477.097656 271.085938 478.246094 273.597656 478.246094 C 273.820312 478.246094 274.046875 478.238281 274.269531 478.21875 C 315.402344 474.882812 354.726562 460.179688 387.996094 435.707031 C 420.644531 411.691406 446.144531 379.304688 461.742188 342.058594 C 462.8125 339.507812 462.53125 336.59375 461 334.292969 C 459.46875 331.992188 456.890625 330.609375 454.125 330.609375 Z M 52.542969 291.183594 C 50.554688 279.597656 49.546875 267.808594 49.546875 256 C 49.546875 200.039062 72.199219 146.773438 112.09375 107.980469 L 148.878906 221.191406 Z M 332.972656 260.535156 L 320.9375 297.574219 L 303.570312 297.574219 L 318.925781 250.328125 Z M 338.304688 297.574219 L 347.023438 270.742188 L 383.953125 297.574219 Z M 191.027344 190.570312 L 176.917969 147.15625 L 213.851562 173.988281 Z M 173.695312 297.574219 L 128.046875 297.574219 L 164.976562 270.742188 Z M 256 204.609375 L 304.875 240.121094 L 286.207031 297.574219 L 225.792969 297.574219 L 207.125 240.121094 Z M 256 390.539062 L 241.894531 347.121094 L 270.105469 347.121094 Z M 285.410156 460.363281 L 322.203125 347.121094 L 441.308594 347.121094 C 411.144531 408.566406 353.050781 450.761719 285.410156 460.363281 Z M 285.410156 460.363281 "/>
<path style=" stroke:none;fill-rule:nonzero;fill:rgb(0%,0%,0%);fill-opacity:1;" d="M 401.40625 86.972656 C 399.308594 85.167969 396.449219 84.53125 393.789062 85.277344 C 391.128906 86.023438 389.015625 88.050781 388.164062 90.679688 L 349.074219 210.984375 L 335.023438 200.777344 L 358.640625 128.085938 C 359.746094 124.683594 358.535156 120.957031 355.640625 118.851562 C 352.75 116.75 348.828125 116.75 345.933594 118.851562 L 284.101562 163.78125 L 159.65625 73.367188 C 189.21875 57.75 222.273438 49.546875 256 49.546875 C 289.726562 49.546875 322.78125 57.75 352.34375 73.367188 L 279.246094 126.476562 C 275.554688 129.160156 274.738281 134.324219 277.417969 138.011719 C 280.097656 141.703125 285.261719 142.523438 288.953125 139.839844 L 372.417969 79.199219 C 374.652344 77.574219 375.929688 74.941406 375.816406 72.183594 C 375.703125 69.425781 374.21875 66.902344 371.859375 65.464844 C 337.039062 44.246094 296.976562 33.03125 256 33.03125 C 215.023438 33.03125 174.960938 44.246094 140.140625 65.464844 C 137.78125 66.902344 136.296875 69.425781 136.183594 72.183594 C 136.074219 74.941406 137.347656 77.574219 139.582031 79.199219 L 279.242188 180.667969 L 320.460938 210.613281 C 320.460938 210.617188 320.460938 210.617188 320.464844 210.617188 L 348.394531 230.910156 C 348.5 230.992188 348.613281 231.070312 348.722656 231.148438 L 460.132812 312.09375 C 461.5625 313.132812 463.265625 313.671875 464.988281 313.671875 C 465.957031 313.671875 466.929688 313.5 467.859375 313.15625 C 470.453125 312.191406 472.390625 309.996094 473.023438 307.304688 C 476.96875 290.5625 478.96875 273.300781 478.96875 256 C 478.96875 191.019531 450.699219 129.410156 401.40625 86.972656 Z M 335.078125 147.15625 L 320.972656 190.570312 L 298.148438 173.988281 Z M 459.457031 291.183594 L 363.121094 221.195312 L 399.90625 107.980469 C 439.800781 146.773438 462.453125 200.039062 462.453125 256 C 462.453125 267.808594 461.445312 279.597656 459.457031 291.183594 Z M 459.457031 291.183594 "/>
</g>
</svg>
