<svg height="32" viewBox="0 0 32 32" width="32" xmlns="http://www.w3.org/2000/svg"><path d="m16 31.617c-8.611 0-15.617-7.006-15.617-15.617s7.006-15.617 15.617-15.617 15.617 7.006 15.617 15.617c0 8.612-7.006 15.617-15.617 15.617zm0-2.073c2.484 0 4.812-.675 6.815-1.847l-6.73-5.117-6.896 5.12c2.002 1.17 4.329 1.844 6.811 1.844zm-4.97-6.221 3.052-2.266-1.906-1.386zm.544-9.995-4.076-.04 3.36 2.44zm3.889 5.744.619.45 1.861-1.329 1.161-.863-1.236-3.94-3.71-.036-1.197 3.817 2.502 1.902zm2.643 2.009 2.857 2.172-1.089-3.471-.486.347zm3.094-5.217 3.37-2.409-4.102-.04zm-18.744.136c0 4.248 1.967 8.043 5.037 10.529l2.621-8.355-7.291-5.295c-.238 1.003-.367 2.047-.367 3.121zm1.027-5.168 8.811.086 2.511-8.406c-5.121.45-9.432 3.76-11.322 8.32zm12.525-3.373-1.093 3.485 2.193.021zm1.202-4.947 2.534 8.479 8.87.087c-1.833-4.682-6.199-8.102-11.404-8.566zm4.733 15.791 2.577 8.215c3.063-2.485 5.024-6.276 5.024-10.519 0-.997-.111-1.967-.316-2.903l-7.285 5.206z"/></svg>